<?xml version="1.0" encoding="utf-8"?>
<!-- Generator: Adobe Illustrator 24.2.3, SVG Export Plug-In . SVG Version: 6.00 Build 0)  -->
<svg version="1.1" id="Layer_1" xmlns="http://www.w3.org/2000/svg" xmlns:xlink="http://www.w3.org/1999/xlink" x="0px" y="0px"
	 viewBox="0 0 100 100" style="enable-background:new 0 0 100 100;" xml:space="preserve">
<path d="M50,4C24.6,4,4,24.6,4,50s20.6,46,46,46s46-20.6,46-46S75.4,4,50,4z M50,8c23.2,0,42,18.8,42,42S73.2,92,50,92S8,73.2,8,50
	S26.8,8,50,8z M49.9,14c-1.1,0-2,0.9-2,2v28.4c-2.4,0.8-4,3.1-4,5.6c0,3.3,2.7,6,6,6c0.9,0,1.8-0.2,2.6-0.6l12,12c0,0,0,0,0.1,0.1
	c0.8,0.8,2.1,0.7,2.8-0.1c0.8-0.8,0.7-2.1-0.1-2.8l-12-12c0.4-0.8,0.6-1.7,0.6-2.6c0-2.5-1.6-4.8-4-5.7V16C52,14.9,51.1,14,49.9,14
	C50,14,50,14,49.9,14z"/>
</svg>
